<mxfile host="app.diagrams.net" agent="Mozilla/5.0 (Windows NT 10.0; Win64; x64) AppleWebKit/537.36 (KHTML, like Gecko) Chrome/129.0.0.0 Safari/537.36" version="24.7.16">
  <diagram id="R2lEEEUBdFMjLlhIrx00" name="Page-1">
    <mxGraphModel grid="1" page="1" gridSize="10" guides="1" tooltips="1" connect="1" arrows="1" fold="1" pageScale="1" pageWidth="850" pageHeight="1100" math="0" shadow="0" extFonts="Permanent Marker^https://fonts.googleapis.com/css?family=Permanent+Marker">
      <root>
        <mxCell id="0" />
        <mxCell id="1" parent="0" />
        <mxCell id="ImoSV4EJO8gtgeA4D3U5-21" style="edgeStyle=orthogonalEdgeStyle;rounded=0;orthogonalLoop=1;jettySize=auto;html=1;entryX=1;entryY=0.5;entryDx=0;entryDy=0;" edge="1" parent="1" source="ImoSV4EJO8gtgeA4D3U5-7" target="ImoSV4EJO8gtgeA4D3U5-19">
          <mxGeometry relative="1" as="geometry" />
        </mxCell>
        <mxCell id="ImoSV4EJO8gtgeA4D3U5-22" style="edgeStyle=orthogonalEdgeStyle;rounded=0;orthogonalLoop=1;jettySize=auto;html=1;entryX=1;entryY=0.5;entryDx=0;entryDy=0;" edge="1" parent="1" source="ImoSV4EJO8gtgeA4D3U5-7" target="ImoSV4EJO8gtgeA4D3U5-17">
          <mxGeometry relative="1" as="geometry" />
        </mxCell>
        <mxCell id="ImoSV4EJO8gtgeA4D3U5-23" style="edgeStyle=orthogonalEdgeStyle;rounded=0;orthogonalLoop=1;jettySize=auto;html=1;" edge="1" parent="1" source="ImoSV4EJO8gtgeA4D3U5-7" target="ImoSV4EJO8gtgeA4D3U5-15">
          <mxGeometry relative="1" as="geometry" />
        </mxCell>
        <mxCell id="ImoSV4EJO8gtgeA4D3U5-24" style="edgeStyle=orthogonalEdgeStyle;rounded=0;orthogonalLoop=1;jettySize=auto;html=1;entryX=1;entryY=0.5;entryDx=0;entryDy=0;" edge="1" parent="1" source="ImoSV4EJO8gtgeA4D3U5-7" target="ImoSV4EJO8gtgeA4D3U5-16">
          <mxGeometry relative="1" as="geometry" />
        </mxCell>
        <mxCell id="ImoSV4EJO8gtgeA4D3U5-7" value="PRODUCTO" style="whiteSpace=wrap;html=1;align=center;" vertex="1" parent="1">
          <mxGeometry x="190" y="130" width="100" height="40" as="geometry" />
        </mxCell>
        <mxCell id="ImoSV4EJO8gtgeA4D3U5-41" style="edgeStyle=orthogonalEdgeStyle;rounded=0;orthogonalLoop=1;jettySize=auto;html=1;entryX=0;entryY=0.5;entryDx=0;entryDy=0;" edge="1" parent="1" source="ImoSV4EJO8gtgeA4D3U5-8" target="ImoSV4EJO8gtgeA4D3U5-18">
          <mxGeometry relative="1" as="geometry" />
        </mxCell>
        <mxCell id="ImoSV4EJO8gtgeA4D3U5-42" style="edgeStyle=orthogonalEdgeStyle;rounded=0;orthogonalLoop=1;jettySize=auto;html=1;entryX=0;entryY=0.5;entryDx=0;entryDy=0;" edge="1" parent="1" source="ImoSV4EJO8gtgeA4D3U5-8" target="ImoSV4EJO8gtgeA4D3U5-26">
          <mxGeometry relative="1" as="geometry" />
        </mxCell>
        <mxCell id="ImoSV4EJO8gtgeA4D3U5-43" style="edgeStyle=orthogonalEdgeStyle;rounded=0;orthogonalLoop=1;jettySize=auto;html=1;" edge="1" parent="1" source="ImoSV4EJO8gtgeA4D3U5-8" target="ImoSV4EJO8gtgeA4D3U5-25">
          <mxGeometry relative="1" as="geometry" />
        </mxCell>
        <mxCell id="ImoSV4EJO8gtgeA4D3U5-44" style="edgeStyle=orthogonalEdgeStyle;rounded=0;orthogonalLoop=1;jettySize=auto;html=1;entryX=0;entryY=0.5;entryDx=0;entryDy=0;" edge="1" parent="1" source="ImoSV4EJO8gtgeA4D3U5-8" target="ImoSV4EJO8gtgeA4D3U5-29">
          <mxGeometry relative="1" as="geometry" />
        </mxCell>
        <mxCell id="ImoSV4EJO8gtgeA4D3U5-45" style="edgeStyle=orthogonalEdgeStyle;rounded=0;orthogonalLoop=1;jettySize=auto;html=1;entryX=0;entryY=0.5;entryDx=0;entryDy=0;" edge="1" parent="1" source="ImoSV4EJO8gtgeA4D3U5-8" target="ImoSV4EJO8gtgeA4D3U5-27">
          <mxGeometry relative="1" as="geometry" />
        </mxCell>
        <mxCell id="ImoSV4EJO8gtgeA4D3U5-8" value="CLIENTE" style="whiteSpace=wrap;html=1;align=center;" vertex="1" parent="1">
          <mxGeometry x="580" y="130" width="100" height="40" as="geometry" />
        </mxCell>
        <mxCell id="ImoSV4EJO8gtgeA4D3U5-35" style="edgeStyle=orthogonalEdgeStyle;rounded=0;orthogonalLoop=1;jettySize=auto;html=1;entryX=1;entryY=0.5;entryDx=0;entryDy=0;" edge="1" parent="1" source="ImoSV4EJO8gtgeA4D3U5-9" target="ImoSV4EJO8gtgeA4D3U5-20">
          <mxGeometry relative="1" as="geometry" />
        </mxCell>
        <mxCell id="ImoSV4EJO8gtgeA4D3U5-36" style="edgeStyle=orthogonalEdgeStyle;rounded=0;orthogonalLoop=1;jettySize=auto;html=1;entryX=1;entryY=0.5;entryDx=0;entryDy=0;" edge="1" parent="1" source="ImoSV4EJO8gtgeA4D3U5-9" target="ImoSV4EJO8gtgeA4D3U5-33">
          <mxGeometry relative="1" as="geometry" />
        </mxCell>
        <mxCell id="ImoSV4EJO8gtgeA4D3U5-37" style="edgeStyle=orthogonalEdgeStyle;rounded=0;orthogonalLoop=1;jettySize=auto;html=1;entryX=1;entryY=0.5;entryDx=0;entryDy=0;" edge="1" parent="1" source="ImoSV4EJO8gtgeA4D3U5-9" target="ImoSV4EJO8gtgeA4D3U5-30">
          <mxGeometry relative="1" as="geometry" />
        </mxCell>
        <mxCell id="ImoSV4EJO8gtgeA4D3U5-38" style="edgeStyle=orthogonalEdgeStyle;rounded=0;orthogonalLoop=1;jettySize=auto;html=1;entryX=1;entryY=0.5;entryDx=0;entryDy=0;" edge="1" parent="1" source="ImoSV4EJO8gtgeA4D3U5-9" target="ImoSV4EJO8gtgeA4D3U5-28">
          <mxGeometry relative="1" as="geometry" />
        </mxCell>
        <mxCell id="ImoSV4EJO8gtgeA4D3U5-39" style="edgeStyle=orthogonalEdgeStyle;rounded=0;orthogonalLoop=1;jettySize=auto;html=1;entryX=1;entryY=0.5;entryDx=0;entryDy=0;" edge="1" parent="1" source="ImoSV4EJO8gtgeA4D3U5-9" target="ImoSV4EJO8gtgeA4D3U5-32">
          <mxGeometry relative="1" as="geometry" />
        </mxCell>
        <mxCell id="ImoSV4EJO8gtgeA4D3U5-40" style="edgeStyle=orthogonalEdgeStyle;rounded=0;orthogonalLoop=1;jettySize=auto;html=1;entryX=1;entryY=0.5;entryDx=0;entryDy=0;" edge="1" parent="1" source="ImoSV4EJO8gtgeA4D3U5-9" target="ImoSV4EJO8gtgeA4D3U5-34">
          <mxGeometry relative="1" as="geometry" />
        </mxCell>
        <mxCell id="ImoSV4EJO8gtgeA4D3U5-9" value="PROVEEDOR" style="whiteSpace=wrap;html=1;align=center;" vertex="1" parent="1">
          <mxGeometry x="190" y="430" width="100" height="40" as="geometry" />
        </mxCell>
        <mxCell id="ImoSV4EJO8gtgeA4D3U5-10" value="" style="endArrow=none;html=1;rounded=0;entryX=0.5;entryY=1;entryDx=0;entryDy=0;exitX=0.5;exitY=0;exitDx=0;exitDy=0;" edge="1" parent="1" source="ImoSV4EJO8gtgeA4D3U5-9" target="ImoSV4EJO8gtgeA4D3U5-7">
          <mxGeometry width="50" height="50" relative="1" as="geometry">
            <mxPoint x="620" y="300" as="sourcePoint" />
            <mxPoint x="670" y="250" as="targetPoint" />
          </mxGeometry>
        </mxCell>
        <mxCell id="ImoSV4EJO8gtgeA4D3U5-50" value="(1,N)" style="edgeLabel;html=1;align=center;verticalAlign=middle;resizable=0;points=[];" connectable="0" vertex="1" parent="ImoSV4EJO8gtgeA4D3U5-10">
          <mxGeometry x="-0.6" y="-3" relative="1" as="geometry">
            <mxPoint as="offset" />
          </mxGeometry>
        </mxCell>
        <mxCell id="ImoSV4EJO8gtgeA4D3U5-51" value="(1,N)" style="edgeLabel;html=1;align=center;verticalAlign=middle;resizable=0;points=[];" connectable="0" vertex="1" parent="ImoSV4EJO8gtgeA4D3U5-10">
          <mxGeometry x="0.6489" y="-2" relative="1" as="geometry">
            <mxPoint as="offset" />
          </mxGeometry>
        </mxCell>
        <mxCell id="ImoSV4EJO8gtgeA4D3U5-11" value="" style="endArrow=none;html=1;rounded=0;entryX=0;entryY=0.5;entryDx=0;entryDy=0;exitX=1;exitY=0.5;exitDx=0;exitDy=0;" edge="1" parent="1" source="ImoSV4EJO8gtgeA4D3U5-13" target="ImoSV4EJO8gtgeA4D3U5-8">
          <mxGeometry width="50" height="50" relative="1" as="geometry">
            <mxPoint x="620" y="300" as="sourcePoint" />
            <mxPoint x="670" y="250" as="targetPoint" />
          </mxGeometry>
        </mxCell>
        <mxCell id="ImoSV4EJO8gtgeA4D3U5-53" value="(1,N)" style="edgeLabel;html=1;align=center;verticalAlign=middle;resizable=0;points=[];" connectable="0" vertex="1" parent="ImoSV4EJO8gtgeA4D3U5-11">
          <mxGeometry x="-0.1618" y="-1" relative="1" as="geometry">
            <mxPoint x="1" as="offset" />
          </mxGeometry>
        </mxCell>
        <mxCell id="ImoSV4EJO8gtgeA4D3U5-12" value="Suministrar" style="shape=rhombus;perimeter=rhombusPerimeter;whiteSpace=wrap;html=1;align=center;" vertex="1" parent="1">
          <mxGeometry x="180" y="270" width="120" height="60" as="geometry" />
        </mxCell>
        <mxCell id="ImoSV4EJO8gtgeA4D3U5-14" value="" style="endArrow=none;html=1;rounded=0;entryX=0;entryY=0.5;entryDx=0;entryDy=0;exitX=1;exitY=0.5;exitDx=0;exitDy=0;" edge="1" parent="1" source="ImoSV4EJO8gtgeA4D3U5-7" target="ImoSV4EJO8gtgeA4D3U5-13">
          <mxGeometry width="50" height="50" relative="1" as="geometry">
            <mxPoint x="290" y="150" as="sourcePoint" />
            <mxPoint x="580" y="150" as="targetPoint" />
          </mxGeometry>
        </mxCell>
        <mxCell id="ImoSV4EJO8gtgeA4D3U5-52" value="(1,N)" style="edgeLabel;html=1;align=center;verticalAlign=middle;resizable=0;points=[];" connectable="0" vertex="1" parent="ImoSV4EJO8gtgeA4D3U5-14">
          <mxGeometry x="-0.1634" y="-2" relative="1" as="geometry">
            <mxPoint as="offset" />
          </mxGeometry>
        </mxCell>
        <mxCell id="ImoSV4EJO8gtgeA4D3U5-47" style="edgeStyle=orthogonalEdgeStyle;rounded=0;orthogonalLoop=1;jettySize=auto;html=1;entryX=0.5;entryY=1;entryDx=0;entryDy=0;" edge="1" parent="1" source="ImoSV4EJO8gtgeA4D3U5-13" target="ImoSV4EJO8gtgeA4D3U5-46">
          <mxGeometry relative="1" as="geometry" />
        </mxCell>
        <mxCell id="ImoSV4EJO8gtgeA4D3U5-49" style="edgeStyle=orthogonalEdgeStyle;rounded=0;orthogonalLoop=1;jettySize=auto;html=1;entryX=0.5;entryY=1;entryDx=0;entryDy=0;" edge="1" parent="1" source="ImoSV4EJO8gtgeA4D3U5-13" target="ImoSV4EJO8gtgeA4D3U5-48">
          <mxGeometry relative="1" as="geometry" />
        </mxCell>
        <mxCell id="ImoSV4EJO8gtgeA4D3U5-13" value="Compra" style="shape=rhombus;perimeter=rhombusPerimeter;whiteSpace=wrap;html=1;align=center;" vertex="1" parent="1">
          <mxGeometry x="380" y="120" width="120" height="60" as="geometry" />
        </mxCell>
        <mxCell id="ImoSV4EJO8gtgeA4D3U5-15" value="NumUnidades" style="ellipse;whiteSpace=wrap;html=1;align=center;" vertex="1" parent="1">
          <mxGeometry x="50" y="130" width="100" height="40" as="geometry" />
        </mxCell>
        <mxCell id="ImoSV4EJO8gtgeA4D3U5-16" value="Precio" style="ellipse;whiteSpace=wrap;html=1;align=center;" vertex="1" parent="1">
          <mxGeometry x="50" y="190" width="100" height="40" as="geometry" />
        </mxCell>
        <mxCell id="ImoSV4EJO8gtgeA4D3U5-17" value="Descripción" style="ellipse;whiteSpace=wrap;html=1;align=center;" vertex="1" parent="1">
          <mxGeometry x="50" y="70" width="100" height="40" as="geometry" />
        </mxCell>
        <mxCell id="ImoSV4EJO8gtgeA4D3U5-18" value="&lt;u&gt;Código&lt;/u&gt;" style="ellipse;whiteSpace=wrap;html=1;align=center;" vertex="1" parent="1">
          <mxGeometry x="730" y="20" width="100" height="40" as="geometry" />
        </mxCell>
        <mxCell id="ImoSV4EJO8gtgeA4D3U5-19" value="&lt;u&gt;Código&lt;/u&gt;" style="ellipse;whiteSpace=wrap;html=1;align=center;" vertex="1" parent="1">
          <mxGeometry x="50" y="20" width="100" height="40" as="geometry" />
        </mxCell>
        <mxCell id="ImoSV4EJO8gtgeA4D3U5-20" value="&lt;u&gt;Código&lt;/u&gt;" style="ellipse;whiteSpace=wrap;html=1;align=center;" vertex="1" parent="1">
          <mxGeometry x="20" y="360" width="100" height="40" as="geometry" />
        </mxCell>
        <mxCell id="ImoSV4EJO8gtgeA4D3U5-25" value="NumTeléfono" style="ellipse;whiteSpace=wrap;html=1;align=center;" vertex="1" parent="1">
          <mxGeometry x="730" y="120" width="100" height="40" as="geometry" />
        </mxCell>
        <mxCell id="ImoSV4EJO8gtgeA4D3U5-26" value="Dirección" style="ellipse;whiteSpace=wrap;html=1;align=center;" vertex="1" parent="1">
          <mxGeometry x="730" y="70" width="100" height="40" as="geometry" />
        </mxCell>
        <mxCell id="ImoSV4EJO8gtgeA4D3U5-27" value="Apellidos" style="ellipse;whiteSpace=wrap;html=1;align=center;" vertex="1" parent="1">
          <mxGeometry x="730" y="220" width="100" height="40" as="geometry" />
        </mxCell>
        <mxCell id="ImoSV4EJO8gtgeA4D3U5-28" value="Nombre" style="ellipse;whiteSpace=wrap;html=1;align=center;" vertex="1" parent="1">
          <mxGeometry x="20" y="510" width="100" height="40" as="geometry" />
        </mxCell>
        <mxCell id="ImoSV4EJO8gtgeA4D3U5-29" value="Nombre" style="ellipse;whiteSpace=wrap;html=1;align=center;" vertex="1" parent="1">
          <mxGeometry x="730" y="170" width="100" height="40" as="geometry" />
        </mxCell>
        <mxCell id="ImoSV4EJO8gtgeA4D3U5-30" value="Apellidos" style="ellipse;whiteSpace=wrap;html=1;align=center;" vertex="1" parent="1">
          <mxGeometry x="20" y="460" width="100" height="40" as="geometry" />
        </mxCell>
        <mxCell id="ImoSV4EJO8gtgeA4D3U5-32" value="Dirección" style="ellipse;whiteSpace=wrap;html=1;align=center;" vertex="1" parent="1">
          <mxGeometry x="20" y="560" width="100" height="40" as="geometry" />
        </mxCell>
        <mxCell id="ImoSV4EJO8gtgeA4D3U5-33" value="NumTeléfono" style="ellipse;whiteSpace=wrap;html=1;align=center;" vertex="1" parent="1">
          <mxGeometry x="20" y="410" width="100" height="40" as="geometry" />
        </mxCell>
        <mxCell id="ImoSV4EJO8gtgeA4D3U5-34" value="Provincia" style="ellipse;whiteSpace=wrap;html=1;align=center;" vertex="1" parent="1">
          <mxGeometry x="20" y="610" width="100" height="40" as="geometry" />
        </mxCell>
        <mxCell id="ImoSV4EJO8gtgeA4D3U5-46" value="Fecha de compra" style="ellipse;whiteSpace=wrap;html=1;align=center;" vertex="1" parent="1">
          <mxGeometry x="325" y="30" width="100" height="40" as="geometry" />
        </mxCell>
        <mxCell id="ImoSV4EJO8gtgeA4D3U5-48" value="Unidades compradas" style="ellipse;whiteSpace=wrap;html=1;align=center;" vertex="1" parent="1">
          <mxGeometry x="470" y="30" width="100" height="40" as="geometry" />
        </mxCell>
        <mxCell id="ImoSV4EJO8gtgeA4D3U5-84" value="Compra" style="shape=table;startSize=30;container=1;collapsible=0;childLayout=tableLayout;" vertex="1" parent="1">
          <mxGeometry x="360" y="230" width="290" height="260" as="geometry" />
        </mxCell>
        <mxCell id="ImoSV4EJO8gtgeA4D3U5-85" value="" style="shape=tableRow;horizontal=0;startSize=0;swimlaneHead=0;swimlaneBody=0;strokeColor=inherit;top=0;left=0;bottom=0;right=0;collapsible=0;dropTarget=0;fillColor=none;points=[[0,0.5],[1,0.5]];portConstraint=eastwest;" vertex="1" parent="ImoSV4EJO8gtgeA4D3U5-84">
          <mxGeometry y="30" width="290" height="58" as="geometry" />
        </mxCell>
        <mxCell id="ImoSV4EJO8gtgeA4D3U5-86" value="CódCliente" style="shape=partialRectangle;html=1;whiteSpace=wrap;connectable=0;strokeColor=inherit;overflow=hidden;fillColor=none;top=0;left=0;bottom=0;right=0;pointerEvents=1;" vertex="1" parent="ImoSV4EJO8gtgeA4D3U5-85">
          <mxGeometry width="73" height="58" as="geometry">
            <mxRectangle width="73" height="58" as="alternateBounds" />
          </mxGeometry>
        </mxCell>
        <mxCell id="ImoSV4EJO8gtgeA4D3U5-87" value="CódProducto" style="shape=partialRectangle;html=1;whiteSpace=wrap;connectable=0;strokeColor=inherit;overflow=hidden;fillColor=none;top=0;left=0;bottom=0;right=0;pointerEvents=1;" vertex="1" parent="ImoSV4EJO8gtgeA4D3U5-85">
          <mxGeometry x="73" width="72" height="58" as="geometry">
            <mxRectangle width="72" height="58" as="alternateBounds" />
          </mxGeometry>
        </mxCell>
        <mxCell id="ImoSV4EJO8gtgeA4D3U5-88" value="Fecha&lt;div&gt;de&lt;/div&gt;&lt;div&gt;compra&lt;/div&gt;" style="shape=partialRectangle;html=1;whiteSpace=wrap;connectable=0;strokeColor=inherit;overflow=hidden;fillColor=none;top=0;left=0;bottom=0;right=0;pointerEvents=1;" vertex="1" parent="ImoSV4EJO8gtgeA4D3U5-85">
          <mxGeometry x="145" width="73" height="58" as="geometry">
            <mxRectangle width="73" height="58" as="alternateBounds" />
          </mxGeometry>
        </mxCell>
        <mxCell id="ImoSV4EJO8gtgeA4D3U5-89" value="Unidades&lt;div&gt;compradas&lt;/div&gt;" style="shape=partialRectangle;html=1;whiteSpace=wrap;connectable=0;strokeColor=inherit;overflow=hidden;fillColor=none;top=0;left=0;bottom=0;right=0;pointerEvents=1;" vertex="1" parent="ImoSV4EJO8gtgeA4D3U5-85">
          <mxGeometry x="218" width="72" height="58" as="geometry">
            <mxRectangle width="72" height="58" as="alternateBounds" />
          </mxGeometry>
        </mxCell>
        <mxCell id="ImoSV4EJO8gtgeA4D3U5-90" value="" style="shape=tableRow;horizontal=0;startSize=0;swimlaneHead=0;swimlaneBody=0;strokeColor=inherit;top=0;left=0;bottom=0;right=0;collapsible=0;dropTarget=0;fillColor=none;points=[[0,0.5],[1,0.5]];portConstraint=eastwest;" vertex="1" parent="ImoSV4EJO8gtgeA4D3U5-84">
          <mxGeometry y="88" width="290" height="57" as="geometry" />
        </mxCell>
        <mxCell id="ImoSV4EJO8gtgeA4D3U5-91" value="123" style="shape=partialRectangle;html=1;whiteSpace=wrap;connectable=0;strokeColor=inherit;overflow=hidden;fillColor=none;top=0;left=0;bottom=0;right=0;pointerEvents=1;" vertex="1" parent="ImoSV4EJO8gtgeA4D3U5-90">
          <mxGeometry width="73" height="57" as="geometry">
            <mxRectangle width="73" height="57" as="alternateBounds" />
          </mxGeometry>
        </mxCell>
        <mxCell id="ImoSV4EJO8gtgeA4D3U5-92" value="321O" style="shape=partialRectangle;html=1;whiteSpace=wrap;connectable=0;strokeColor=inherit;overflow=hidden;fillColor=none;top=0;left=0;bottom=0;right=0;pointerEvents=1;" vertex="1" parent="ImoSV4EJO8gtgeA4D3U5-90">
          <mxGeometry x="73" width="72" height="57" as="geometry">
            <mxRectangle width="72" height="57" as="alternateBounds" />
          </mxGeometry>
        </mxCell>
        <mxCell id="ImoSV4EJO8gtgeA4D3U5-93" value="12/02/24" style="shape=partialRectangle;html=1;whiteSpace=wrap;connectable=0;strokeColor=inherit;overflow=hidden;fillColor=none;top=0;left=0;bottom=0;right=0;pointerEvents=1;" vertex="1" parent="ImoSV4EJO8gtgeA4D3U5-90">
          <mxGeometry x="145" width="73" height="57" as="geometry">
            <mxRectangle width="73" height="57" as="alternateBounds" />
          </mxGeometry>
        </mxCell>
        <mxCell id="ImoSV4EJO8gtgeA4D3U5-94" value="1" style="shape=partialRectangle;html=1;whiteSpace=wrap;connectable=0;strokeColor=inherit;overflow=hidden;fillColor=none;top=0;left=0;bottom=0;right=0;pointerEvents=1;" vertex="1" parent="ImoSV4EJO8gtgeA4D3U5-90">
          <mxGeometry x="218" width="72" height="57" as="geometry">
            <mxRectangle width="72" height="57" as="alternateBounds" />
          </mxGeometry>
        </mxCell>
        <mxCell id="ImoSV4EJO8gtgeA4D3U5-95" value="" style="shape=tableRow;horizontal=0;startSize=0;swimlaneHead=0;swimlaneBody=0;strokeColor=inherit;top=0;left=0;bottom=0;right=0;collapsible=0;dropTarget=0;fillColor=none;points=[[0,0.5],[1,0.5]];portConstraint=eastwest;" vertex="1" parent="ImoSV4EJO8gtgeA4D3U5-84">
          <mxGeometry y="145" width="290" height="58" as="geometry" />
        </mxCell>
        <mxCell id="ImoSV4EJO8gtgeA4D3U5-96" value="124" style="shape=partialRectangle;html=1;whiteSpace=wrap;connectable=0;strokeColor=inherit;overflow=hidden;fillColor=none;top=0;left=0;bottom=0;right=0;pointerEvents=1;" vertex="1" parent="ImoSV4EJO8gtgeA4D3U5-95">
          <mxGeometry width="73" height="58" as="geometry">
            <mxRectangle width="73" height="58" as="alternateBounds" />
          </mxGeometry>
        </mxCell>
        <mxCell id="ImoSV4EJO8gtgeA4D3U5-97" value="432I" style="shape=partialRectangle;html=1;whiteSpace=wrap;connectable=0;strokeColor=inherit;overflow=hidden;fillColor=none;top=0;left=0;bottom=0;right=0;pointerEvents=1;" vertex="1" parent="ImoSV4EJO8gtgeA4D3U5-95">
          <mxGeometry x="73" width="72" height="58" as="geometry">
            <mxRectangle width="72" height="58" as="alternateBounds" />
          </mxGeometry>
        </mxCell>
        <mxCell id="ImoSV4EJO8gtgeA4D3U5-98" value="13/02/24" style="shape=partialRectangle;html=1;whiteSpace=wrap;connectable=0;strokeColor=inherit;overflow=hidden;fillColor=none;top=0;left=0;bottom=0;right=0;pointerEvents=1;" vertex="1" parent="ImoSV4EJO8gtgeA4D3U5-95">
          <mxGeometry x="145" width="73" height="58" as="geometry">
            <mxRectangle width="73" height="58" as="alternateBounds" />
          </mxGeometry>
        </mxCell>
        <mxCell id="ImoSV4EJO8gtgeA4D3U5-99" value="3" style="shape=partialRectangle;html=1;whiteSpace=wrap;connectable=0;strokeColor=inherit;overflow=hidden;fillColor=none;top=0;left=0;bottom=0;right=0;pointerEvents=1;" vertex="1" parent="ImoSV4EJO8gtgeA4D3U5-95">
          <mxGeometry x="218" width="72" height="58" as="geometry">
            <mxRectangle width="72" height="58" as="alternateBounds" />
          </mxGeometry>
        </mxCell>
        <mxCell id="ImoSV4EJO8gtgeA4D3U5-100" value="" style="shape=tableRow;horizontal=0;startSize=0;swimlaneHead=0;swimlaneBody=0;strokeColor=inherit;top=0;left=0;bottom=0;right=0;collapsible=0;dropTarget=0;fillColor=none;points=[[0,0.5],[1,0.5]];portConstraint=eastwest;" vertex="1" parent="ImoSV4EJO8gtgeA4D3U5-84">
          <mxGeometry y="203" width="290" height="57" as="geometry" />
        </mxCell>
        <mxCell id="ImoSV4EJO8gtgeA4D3U5-101" value="231" style="shape=partialRectangle;html=1;whiteSpace=wrap;connectable=0;strokeColor=inherit;overflow=hidden;fillColor=none;top=0;left=0;bottom=0;right=0;pointerEvents=1;" vertex="1" parent="ImoSV4EJO8gtgeA4D3U5-100">
          <mxGeometry width="73" height="57" as="geometry">
            <mxRectangle width="73" height="57" as="alternateBounds" />
          </mxGeometry>
        </mxCell>
        <mxCell id="ImoSV4EJO8gtgeA4D3U5-102" value="789U" style="shape=partialRectangle;html=1;whiteSpace=wrap;connectable=0;strokeColor=inherit;overflow=hidden;fillColor=none;top=0;left=0;bottom=0;right=0;pointerEvents=1;" vertex="1" parent="ImoSV4EJO8gtgeA4D3U5-100">
          <mxGeometry x="73" width="72" height="57" as="geometry">
            <mxRectangle width="72" height="57" as="alternateBounds" />
          </mxGeometry>
        </mxCell>
        <mxCell id="ImoSV4EJO8gtgeA4D3U5-103" value="14/02/24" style="shape=partialRectangle;html=1;whiteSpace=wrap;connectable=0;strokeColor=inherit;overflow=hidden;fillColor=none;top=0;left=0;bottom=0;right=0;pointerEvents=1;" vertex="1" parent="ImoSV4EJO8gtgeA4D3U5-100">
          <mxGeometry x="145" width="73" height="57" as="geometry">
            <mxRectangle width="73" height="57" as="alternateBounds" />
          </mxGeometry>
        </mxCell>
        <mxCell id="ImoSV4EJO8gtgeA4D3U5-104" value="2" style="shape=partialRectangle;html=1;whiteSpace=wrap;connectable=0;strokeColor=inherit;overflow=hidden;fillColor=none;top=0;left=0;bottom=0;right=0;pointerEvents=1;" vertex="1" parent="ImoSV4EJO8gtgeA4D3U5-100">
          <mxGeometry x="218" width="72" height="57" as="geometry">
            <mxRectangle width="72" height="57" as="alternateBounds" />
          </mxGeometry>
        </mxCell>
      </root>
    </mxGraphModel>
  </diagram>
</mxfile>
